<svg width="134" height="97" viewBox="0 0 134 97" fill="none" xmlns="http://www.w3.org/2000/svg">
<g clip-path="url(#clip0)">
<path d="M27 9.39492C16.2 9.39492 4.5 3.39492 0 0.39492V83.3949C0 87.8949 32 97.3949 47.5 90.8949C59.9 85.6949 77.6667 85.3949 85 85.8949C105.8 85.8949 126.333 93.5616 134 97.3949V9.39492C122.667 6.39492 96.7794 -1.8955 85 0.39492C67 3.89489 40.5 9.39492 27 9.39492Z" fill="#1DA1F2"/>
<path d="M100.778 27.5201C98.2859 28.6276 95.6044 29.3747 92.7909 29.709C95.6636 27.9892 97.8663 25.2651 98.9051 22.0154C96.2181 23.61 93.2435 24.767 90.075 25.3917C87.5393 22.6895 83.925 21 79.9255 21C72.247 21 66.0213 27.2256 66.0213 34.9055C66.0213 35.9938 66.1438 37.0546 66.3818 38.0741C54.8248 37.4935 44.5776 31.9585 37.7191 23.5453C36.5221 25.598 35.837 27.9865 35.837 30.5373C35.837 35.3609 38.2914 39.6178 42.0227 42.1108C39.7443 42.0378 37.5994 41.4118 35.7241 40.3703C35.7228 40.4281 35.7228 40.4873 35.7228 40.5464C35.7228 47.2825 40.5162 52.9014 46.878 54.1809C45.7113 54.4974 44.4827 54.668 43.2142 54.668C42.3171 54.668 41.4462 54.5813 40.5973 54.4176C42.368 59.9415 47.5026 63.9631 53.5866 64.0745C48.8276 67.8044 42.8331 70.0278 36.3171 70.0278C35.1958 70.0278 34.0883 69.9617 33 69.8324C39.1555 73.7796 46.4639 76.08 54.3157 76.08C79.8938 76.08 93.8791 54.8922 93.8791 36.5166C93.8791 35.914 93.8668 35.3128 93.8406 34.7157C96.5565 32.7592 98.9147 30.3089 100.778 27.5201Z" fill="white"/>
</g>
<defs>
<clipPath id="clip0">
<rect width="134" height="97" fill="white"/>
</clipPath>
</defs>
</svg>
